/* XPM */
static char *_8ba68e3494f42e3ca6e931348ca9ae0jD2hrI05dDnfSLQC[] = {
/* columns rows colors chars-per-pixel */
"32 32 22 1 ",
"  c None",
". c #301504",
"X c #351705",
"o c #54090E",
"O c #441E07",
"+ c #7D0D14",
"@ c #542409",
"# c #77340D",
"$ c #9E111A",
"% c #B2131E",
"& c #B4131E",
"* c #C51421",
"= c #D31623",
"- c #DD1725",
"; c #F01928",
": c #FF1C2B",
"> c #FF535E",
", c #FF5E69",
"< c #FF969D",
"1 c #FFA0A6",
"2 c #FFAAAF",
"3 c gray87",
/* pixels */
"                                ",
"                                ",
"                   #            ",
"                   #            ",
"                   O            ",
"                 #OO            ",
"                 #              ",
"                 #              ",
"            ==%%..OO            ",
"           $==%%..OO            ",
"        ====;;@@@@&&++++        ",
"       $====;;@@@@&&++++$       ",
"      ==;;::::::&&::&&&&++      ",
"      ==;;::::::&&::&&&&++      ",
"      ==::33<<,,::::::&&++      ",
"     $==::32<<,,::::::&&+$$     ",
"    ==;;133<,,::::::::--&&++    ",
"    ==;;13<<,,::::::::--&&++    ",
"    ==::>><<::::::::;;--&&oo    ",
"    ==::>><<::::::::;;--&&oo    ",
"    ==::::::::::::::;;--&&oo    ",
"    ==::::::::::::::;;--&&oo    ",
"    %%::::::::::::;;--**&&oo    ",
"    %%::::::::::::;;--**&&oo    ",
"     $$$--::::;;;;--**&&ooo     ",
"      $$--::::;;;;--**&&oo      ",
"      $$&&&&------**&&&&oo      ",
"      $$&&&&------**&&&&oo      ",
"       ooo&&&&----&&&&ooo       ",
"        oo&&&&XXXX&&&&oo        ",
"         ooooo    ooooo         ",
"          oooo    oooo          "
};
