/* XPM */
static char *result[] = {
/* columns rows colors chars-per-pixel */
"32 32 95 2 ",
"   c #1D0D2E",
".  c #140E35",
"X  c #1C0F31",
"o  c #120D39",
"O  c #1C0F38",
"+  c #1D1435",
"@  c #161139",
"#  c #1D153A",
"$  c #1F193C",
"%  c #210E34",
"&  c #221234",
"*  c #211937",
"=  c #2C1F36",
"-  c #20163C",
";  c #21193C",
":  c #321F36",
">  c #331F3B",
",  c #2C233C",
"<  c #392434",
"1  c #35203D",
"2  c #3B2A3E",
"3  c #532F37",
"4  c #543535",
"5  c #5A3432",
"6  c #53333A",
"7  c #573839",
"8  c #58393E",
"9  c #624633",
"0  c #634837",
"q  c #654A3D",
"w  c #150F45",
"e  c #170F4B",
"r  c #161242",
"t  c #1D1643",
"y  c #1E1940",
"u  c #171F4E",
"i  c #211643",
"p  c #241B43",
"a  c #281D46",
"s  c #22174D",
"d  c #241A4A",
"f  c #2B1E4B",
"g  c #201056",
"h  c #291651",
"j  c #261A52",
"k  c #291D53",
"l  c #24175A",
"z  c #291B5C",
"x  c #1E2241",
"c  c #16234A",
"v  c #1C254C",
"b  c #1B3B5B",
"n  c #202446",
"m  c #2E2540",
"M  c #22244C",
"N  c #2B214B",
"B  c #272B4F",
"V  c #232554",
"C  c #2E2451",
"Z  c #282B51",
"A  c #25245C",
"S  c #2C265C",
"D  c #302654",
"F  c #332857",
"G  c #34295A",
"H  c #203F5B",
"J  c #271A63",
"K  c #2B1D63",
"L  c #2F1F6C",
"P  c #241C77",
"I  c #2B2164",
"U  c #4A3F40",
"Y  c #563144",
"T  c #4B365B",
"R  c #663D43",
"E  c #463774",
"W  c #473974",
"Q  c #493A75",
"!  c #1E4058",
"~  c #20415D",
"^  c #17436E",
"/  c #18446C",
"(  c #1A4473",
")  c #224065",
"_  c #244168",
"`  c #4B4141",
"'  c #9A5836",
"]  c #9D5A3D",
"[  c #A45F3C",
"{  c #B76F30",
"}  c #BA7030",
"|  c #AF7453",
" . c #BF8C3C",
".. c #0E81AE",
"X. c #1184B1",
/* pixels */
"+ p j - y o + # i # # ; + j f C + p j $ y . + # y $ # - + p j # ",
"$ K i $ T 4 p N ; + ; B I z N W # K i t T 4 p N ; + - B ; K p + ",
"- $ * o 7 | $ + o d   _ I # + + ; # * o 8 | # # @ d X ) M # + # ",
"i - + + s l . , U # ; X $ m # + - ; + + t l + , ` # # + - ; # + ",
"+ p N ; # # # * =   z p + v N + # a N ; # # # * =   K d + a N ; ",
"p . ; * # d f ; c / i i   _ y # i . ; * # f d ; c ^ - t t . ; + ",
", ` . # y j ; & / ..f W + + # + , U . + y j # & / ..f Q , 8 + # ",
"* $ + # # + + + & + ; F i + k s + , . # # + + # + X ; Z + , + # ",
"S 5 < t d C p # k p + + + $ d p S 5 < t d D p + j i + + + @ p # ",
"d { R P i Q N d z # # + a k J # p } R P i Q N s z - # # p C J + ",
"l + s d + + + y + # + # - r Y [ g + d d # + + i + + ; + ; r Y [ ",
"V + + N p o + # ; # # - + O > 6 V # + a ; # # i ; + o ; # O > 4 ",
"b ; - $ T 4 p f ; # - Z y D # u H - ; + Z - + ; N p 4 T d N i r ",
"- f * . 7 | $ + @ p   _ A E C - i d & n )   a @ + $ | 8 e Q C ; ",
"i L s + s l + , ` @ * & - + + a i K d + + - @ ` , . l s # + # N ",
"; z z * # + + # ,   K p + + p - ; z z - p K   , * + + ; + # i $ ",
"N ; ; + # j f ; c / i i + + I M p ; - + - i / c p p d - + + I V ",
"$ j p # p d ; & / X.f W p - x H + k p # W f ../ & ; k i a - x ~ ",
"# i + $ $ - + + &   ; N - + i * # i + - D a   + # + + + - + p + ",
"+ + # # & a # - + ; d + ; p # ; # + + + & p # - + - d # - p $ - ",
"# p j + H x p - + . d + # ; + + + + ; f H n a - @ @ s + + d d - ",
"; K i + x ; z t , 3 i N t j # & / ..f E $ ; z t : 3 $ C # K p + ",
"- $ + + a - p w 6 ' N Q + f p a c / - i a ; p r 3 ' f Q $ - + # ",
"i ; # + ; # + p $ @ i s # # + * ,   z p ; ; + ; $ @ i s $ ; + # ",
"+ p M # # a + F p j L i s l . , ` # - + $ p + G p j L s + p N - ",
"p . , $ + + # . - z h o 7 | $ + o p   ) x   + + - z h - i . ; - ",
", 8 . + p i n ; % ( X.; T 4 p N ; # - B a i n ; % ( X.O , ` + + ",
"; , @ + w J p * & v / i $ o + # i # i + w J i # + v / - ; , + + ",
"+ # p @ 0 2 # - + X & n p a j # + + I v 9 2 # + +   & N + $ p # ",
"a j K o  .q o + F N z ; ; # j i N * y b  .q o + F d z ; ; k J + ",
"- r Y ] . t ; + ; p ; + + # + + ; + i + + y ; + p p i + ; r Y [ ",
"+ t 1 5 @ * + # + # # # # # d + - p $ ; # + + # # + + # + t > 3 "
};
