/* XPM */
static char *result[] = {
/* columns rows colors chars-per-pixel */
"32 32 70 1 ",
"  c #120D22",
". c #3B394D",
"X c #231F34",
"o c #151025",
"O c #191429",
"+ c #171126",
"@ c #1F1D35",
"# c #1A162C",
"$ c #181227",
"% c #181328",
"& c #1A162B",
"* c #1B182E",
"= c #161126",
"- c #221E33",
"; c #1B162B",
": c #171227",
"> c #181327",
", c #161125",
"< c #171127",
"1 c #130E23",
"2 c #1A152A",
"3 c #1C182E",
"4 c #25243B",
"5 c #161025",
"6 c #181429",
"7 c #1C1A32",
"8 c #211D31",
"9 c #3A384C",
"0 c #130D22",
"q c #19152A",
"w c #19152B",
"e c #150F24",
"r c #2F2E44",
"t c #1F1B30",
"y c #1F1C31",
"u c #25233A",
"i c #1D1A30",
"p c #1A152B",
"a c #171226",
"s c #19142A",
"d c #1B182D",
"f c #302F45",
"g c #211E34",
"h c #1F1D34",
"j c #181329",
"k c #1E1B33",
"l c #1F1B31",
"z c #140F23",
"x c #2E2D42",
"c c #1B1930",
"v c #1B172D",
"b c #1B172C",
"n c #39384C",
"m c #221E32",
"M c #161227",
"N c #171328",
"B c #1A172D",
"V c #120D23",
"C c #252033",
"Z c #423D4D",
"A c #120C22",
"S c #1C172B",
"D c #252034",
"F c #171228",
"G c #151126",
"H c #1C192E",
"J c #1F1D33",
"K c #303045",
"L c #140F24",
"P c white",
/* pixels */
" .XoO+@#$O%%%%%%%%%%%&*$%%%%%%%%",
"=-;:%>#O:,%%%%%%%%>:<12%%%%%%%%%",
"%o:%%%$+3456%%%%%:#7890O%%%%%%%%",
"%%%%%%%%q3:%%%%%%%Ow;-:O%%%%%%%%",
"%%%%%%%%%:%%O%%%:%%$:=e:%%%%%%%%",
"=$%%%%%%%%%:eO%:3O:%Oert=6%%%%$%",
"y2:%%%%%%%=treq5ui#$%:tp%a>%%sd$",
"fg:%%%%%%%:pt:%qw:q%%%=%ah#:%js%",
"0k#:%%%%%%%:=%%%q%%%%%%%>#O%%%%%",
"Oa$%%%%%%%%%%%%%%%%%%%%%%a=%%%%%",
"%%%%%%%%%%%%%%%%%:=%%%%%:&t:%$%%",
"%%%%%%%%%:%%%%%%:pt:%%:=:lrzp*$%",
"%%%%%%%%:3q%%%%%=lrzO:pl,ae%%s%%",
"%%%%%O%6,43:%%%%%:eq%=yxcv%%%%%%",
"%%%%O1+%%,:%%%%%%%&d$j:zbO%%%%%%",
"%%%O1nmM*%%%%%%%a%$:%%%O:%%%%%%%",
"%%%%=-;Nq%%%%%%a@pBq>%O%%%%%%%:%",
"%%%%%o:%%%%%%%%>#6O%%=VO%%%%%:3q",
"%%%%%%%%%%%%%%%%:%%%oCZAO%%%%:43",
"%%%%%%%%%6%%%%6%%%%%:SDF%:%%$*::",
"%%%%%%%665%%%%5:%%%%OoGH+3q%%$%%",
"%$%%%%%%Ju,66543:O%%:l&:,43:%%%%",
"qd$%%%%$O3:%%:3q:5%Oerl=65%%%%%%",
"js%%%%%%%:%%%%$+345jOe:%%Oa$%:%%",
"%%%%%%%%%%%%%%,:q3:%%O%%%ah#+3q%",
"%%%%%=:%%%%%6543+:%%%%%%%>#q543a",
"%%%%:tp:%%%%%:3q%%%s%%%%%%$:%5:%",
"%%%Oert=%%%%%%:%%%s*$%%%%%$*O6w%",
"%%%%Oe:%%%%%%%%%%%%$%%%%%%%s%qw+",
"%%%%%O%%O%%%%%%%%%%%%%%%%%%%65uH",
"%%%%%%%:eO%%%%%%%%%%%%%%%%%%%:3q",
"%%%%%%=yKLO%%%%%%%%%%%%%%%%%%%a%"
};
