/* XPM */
static char *result[] = {
/* columns rows colors chars-per-pixel */
"32 32 240 2 ",
"   c #160C1E",
".  c #140C1E",
"X  c #120B1D",
"o  c #170D1F",
"O  c #1A0F22",
"+  c #140B1C",
"@  c #1B0F23",
"#  c #27152E",
"$  c #170C1F",
"%  c #150C1D",
"&  c #180D20",
"*  c #1C1024",
"=  c #150B1D",
"-  c #170919",
";  c #160A1C",
":  c #150D1E",
">  c #1E0E20",
",  c #291122",
"<  c #140B1E",
"1  c #1A0E22",
"2  c #23142A",
"3  c #120A1A",
"4  c #180C1D",
"5  c #1A233A",
"6  c #19162A",
"7  c #140D1F",
"8  c #281121",
"9  c #4A1829",
"0  c #130C1E",
"q  c #211329",
"w  c #130B1C",
"e  c #2A162D",
"r  c #1D1024",
"t  c #190E22",
"y  c #160E1F",
"u  c #190B1A",
"i  c #164062",
"p  c #1A253C",
"a  c #1B0E22",
"s  c #24142D",
"d  c #0F0A1B",
"f  c #1A0E20",
"g  c #1A0E21",
"h  c #150C1E",
"j  c #160B1E",
"k  c #160C1F",
"l  c #130A1B",
"z  c #472648",
"x  c #2A1731",
"c  c #120A1B",
"v  c #190E21",
"b  c #26142E",
"n  c #180A19",
"m  c #140B1D",
"M  c #110A1B",
"N  c #1C0F23",
"B  c #150B1C",
"V  c #261122",
"C  c #331727",
"Z  c #201025",
"A  c #351A33",
"S  c #100919",
"D  c #1A0F21",
"F  c #180D1F",
"G  c #170E1F",
"H  c #24142A",
"J  c #26152D",
"K  c #1B0E20",
"L  c #1D1122",
"P  c #201024",
"I  c #361A33",
"U  c #10091A",
"Y  c #180E20",
"T  c #190D20",
"R  c #1F1024",
"E  c #190E20",
"W  c #26152E",
"Q  c #27152C",
"!  c #422241",
"~  c #22132B",
"^  c #211126",
"/  c #22132A",
"(  c #1C0F24",
")  c #190D1F",
"_  c #140A1B",
"`  c #1F0F20",
"'  c #140C1D",
"]  c #171123",
"[  c #170C1E",
"{  c #130B1D",
"}  c #241022",
"|  c #28152C",
" . c #180F20",
".. c #150B1E",
"X. c #161022",
"o. c #181B2D",
"O. c #120818",
"+. c #1C1023",
"@. c #28152D",
"#. c #26142D",
"$. c #1E1025",
"%. c #1F1125",
"&. c #1A0D1F",
"*. c #190C1D",
"=. c #29162D",
"-. c #412241",
";. c #211226",
":. c #180C1E",
">. c #14091A",
",. c #23132B",
"<. c #2D1831",
"1. c #402241",
"2. c #16091A",
"3. c #130A1A",
"4. c #160819",
"5. c #1A233B",
"6. c #174062",
"7. c #231021",
"8. c #130B1B",
"9. c #160C1D",
"0. c #160B1C",
"q. c #1C1931",
"w. c #191125",
"e. c #291327",
"r. c #170E21",
"t. c #160818",
"y. c #203253",
"u. c #15091A",
"i. c #170D20",
"p. c #150A1B",
"a. c #1B1024",
"s. c #2E172F",
"d. c #502747",
"f. c #2F1A32",
"g. c #341932",
"h. c #170818",
"j. c #1E1024",
"k. c #2E182F",
"l. c #1E1124",
"z. c #110A1A",
"x. c #120B1B",
"c. c #190F21",
"v. c #170D1E",
"b. c #150C1F",
"n. c #120B1C",
"m. c #26142B",
"M. c #442343",
"N. c #26152C",
"B. c #1A0C1C",
"V. c #160D1E",
"C. c #190F20",
"Z. c #241329",
"A. c #130A1C",
"S. c #1B091B",
"D. c #1B1022",
"F. c #442342",
"G. c #180F21",
"H. c #164162",
"J. c #1A243B",
"K. c #1D1124",
"L. c #1A091B",
"P. c #1D526C",
"I. c #202F47",
"U. c #190819",
"Y. c #160D1F",
"T. c #160B1D",
"R. c #110A1C",
"E. c #1A0C1D",
"W. c #19233A",
"Q. c #191629",
"!. c #1D1022",
"~. c #1E2E45",
"^. c #1A1426",
"/. c #150A1C",
"(. c #190E1F",
"). c #160F21",
"_. c #140A1C",
"`. c #2D1425",
"'. c #471D2D",
"]. c #210F22",
"[. c #180919",
"{. c #160F22",
"}. c #1C1022",
"|. c #200C1E",
" X c #14091B",
".X c #161024",
"XX c #161328",
"oX c #28162D",
"OX c #0B0718",
"+X c #481E2E",
"@X c #77313E",
"#X c #1E1125",
"$X c #201022",
"%X c #161429",
"&X c #1D1023",
"*X c #2C1A30",
"=X c #1B0F22",
"-X c #16091B",
";X c #1D0D1F",
":X c #201125",
">X c #160E20",
",X c #160E21",
"<X c #180E21",
"1X c #1F1124",
"2X c #201226",
"3X c #150E21",
"4X c #201228",
"5X c #452443",
"6X c #130D1F",
"7X c #120A1C",
"8X c #3A1828",
"9X c #5F2231",
"0X c #1B0F21",
"qX c #100B1C",
"wX c #5D2130",
"eX c #9E3440",
"rX c #231122",
"tX c #221329",
"yX c #25152E",
"uX c #2B1731",
"iX c #482648",
"pX c #170B1D",
"aX c #1B243B",
"sX c #180E1F",
"dX c #3E2139",
"fX c #221326",
"gX c #1A0B1B",
"hX c #1B243C",
"jX c #1C0C1E",
"kX c #25142B",
"lX c #21132A",
"zX c #412240",
"xX c #231327",
"cX c #412341",
"vX c #1C0E21",
"bX c #25142D",
"nX c #28152F",
"mX c #1B0E23",
"MX c #27152F",
"NX c white",
/* pixels */
"          . X                     o O + @ # + $   % & * =   - ; ",
"        : > , <     + %   $     = 1 2 + & @ 3 =     + = o 4 5 6 ",
"        7 8 9 0 o + q 1 + +       % +     w e r = = q t y u i p ",
"  $   = a s d f o % g   @ # +   =   h j k l z x c o v   a b n 4 ",
"m M $ = o N B h     % =   & + o N X V C 0   w = = M   =   & m h ",
"Z A S D o + @ F     = G r H & r J l K L h o g w P I U Y r H t & ",
"T R t E   w W @ = % @ % Q ! ~ @ c $ h = % E ^ m E R 1 % Q ! / ( ",
"  c # 1 = ) w +   + W 1 l c _ h $         h = % h 3 # @ M M + + ",
"= w + % f ` ' @ o h l @ & o ] [ = c           @ o = + { } K . N ",
"r | = o  ...+ J N F   & = X.o.O.+.@.=     [ + #.$.%.h   &.*.n W ",
"=.-.+         l & ;.= h &.:.>.,.<.1.+       2.3.  v %   4.5.6.n ",
"= +   h       $ h m F < 7.&.. N   8.[ 9.h 0.q.w.= % $ & ; 6 5 4 ",
"  [ h ` ) m     o o M   h   % c     [ e.r.t.y.q.u.  i.* h p.-   ",
"    h ) 9.a.i.  c s.d.c = + %.f.+ T ' g.P { h.; k   [ % = * i.% ",
"        h i.f o m j.k.3 # 1 F l.z.[ F x.m   c.o =   f F h i.D v.",
"&   v.E           + % [ @ & + 1 Q m o g     [ & * = [ E   + w [ ",
"* & =   b.  &     o   h l [ n.m.M.c [ h         i.      = N N.m ",
"%   o   B.0.a.& V.C.= 1 Z.A.S.D.x.  o       % a.i.  o o l Q F.M ",
"% c G.B.H.J.4.        o K.L.P.I.U.Y.C.o     T.& h c c.. R.{ c   ",
"N N.= E.W.Q.p.k 9.      = !.~.^./.(.$ ..9.  )._.N Q R.`.'.[     ",
"@.! 3 ].[.:.* = {.      = }.|. XY @ l f o .XXX0.oXF.OX+X@X> a.9.",
"w % #X  $Xb.& T.{.%X; T.= &X*X%   =X%.9.{.XX-Xo + % #XT.;X. F   ",
"m :Xf.+ M m     k >X,X%X0.<X    + 1Xf.w   T.o   m 2Xf.+ M % C.  ",
"  9.B c M.Q c [   T.m 3XB 4Xv =   % +     o C.    % B c 5XQ w   ",
"  0 6X7XQ N =   $ + J a m T $                       $ m Q N m   ",
"0 8X9X0Xc l     = z.@ & + H 1 =     $   % +           $ c l [   ",
"qXwXeXrXt tX= = r =.w     + % Y.    + + 1 q +       + + 1 q +   ",
"yX%.rX0 o v $ c uXiXl k j h   - pX+ J =X  g h   $ + # @   g     ",
"@   M =     M = w U [ 0 C V _.aXQ.>.@ o = %         i.  = %   = ",
"$ v m.r sXU dXfX1 =.= h L f gXH.hXjXw V.C.m       m kX+.G + o g ",
"( lXzXQ % 1 xXv.Q cX+   = h   u vXbXt & & @ %   $ c F.N.% 1 v / ",
"% + c l @ nXS   = +           b.h l Y % mX# w $     M l @ MXl = "
};
