/* XPM */
static char *result[] = {
/* columns rows colors chars-per-pixel */
"32 32 75 1 ",
"  c #000036",
". c #02023D",
"X c #050642",
"o c #090642",
"O c #070844",
"+ c #090946",
"@ c #05054A",
"# c #080649",
"$ c #07094D",
"% c #0C0B4B",
"& c #100D4D",
"* c #081045",
"= c #0C154D",
"- c #131345",
"; c #0D0D52",
": c #0E0F59",
"> c #110E51",
", c #100F58",
"< c #0E1452",
"1 c #0F1158",
"2 c #121256",
"3 c #131A56",
"4 c #1C1B53",
"5 c #13135C",
"6 c #19135F",
"7 c #121958",
"8 c #18195A",
"9 c #172B5D",
"0 c #192B5D",
"q c #2D2B4E",
"w c #2E2C50",
"e c #302E50",
"r c #141463",
"t c #1A1562",
"y c #161866",
"u c #1B1D66",
"i c #151569",
"p c #18166A",
"a c #1B1A6B",
"s c #1D1A71",
"d c #1B177B",
"f c #1A1B7C",
"g c #221D73",
"h c #231F7D",
"j c #1E236E",
"k c #1D3066",
"l c #1F326A",
"z c #1F2473",
"x c #1E3373",
"c c #233167",
"v c #21326A",
"b c #393761",
"n c #242473",
"m c #24207E",
"M c #27297F",
"N c #676267",
"B c #6A656C",
"V c #6F6A6C",
"C c #726C70",
"Z c #1F1E80",
"A c #201F82",
"S c #282A82",
"D c #29258B",
"F c #2D2F96",
"G c #322B97",
"H c #2D3097",
"J c #2F339B",
"K c #30349D",
"L c #3F4195",
"P c #3E4298",
"I c #3C6487",
"U c #3D658A",
"Y c #41449A",
"T c #406A8E",
"R c #4547A0",
/* pixels */
"XX+X<r9TX>6.XX+%XXX.<r9TX>t a$Il",
";OO.yF+cX52l%$XOX.K55K*cX57lJr03",
"#%.%oXp>XokU.%XX2.y;..p>Xo0U.;to",
"%59zXyf.O2..X5<vfa+.oyd.#2..%A1.",
"X.Ul.2OoO+5&X.9IrGaOX2XO++5%+;.+",
"%%.Xo5+%O.n5.>O.#if;X5%%o.n2+5o&",
"&a;X&%.O%.Lu.6yX;+;2&+XX%.Lj%.O.",
";#s%..%+%%..5+yt+X%o..%+=+..oO%+",
";2..wNXg;.%X#OOo%5..eNXg;.+OOO+O",
"X5j9-q.5p%XXO.%%X,j9-q.2s%OOO.%%",
";dxI.@%.%%5%i1%2+dxI.@%.%%5%i1+5",
"%#X.%m%OX.S5;D;.%%X.%A%OX.S2;D2.",
"XO5.%%XO+OXXo%5oX%5.%=XX+O.OO%5o",
"Ru >%XOoOOX&or<.Yu ;%.oOo+X&Xr<.",
"u%;a%O++OXt%.Kr u%;a&o%OOOt&.Jy.",
".%g;X&+.OO=%O qB.%g;.%+.XO>%..wC",
"X%%OOX#&XOXX%;-q.%&+XX#>XOXO+%-e",
"a%.>X.>roXX.>t%$a%.>X.2tOXX.;t%$",
"y%%.vIXX>6%u.Xggr+&.kI.X>6%uX.gg",
"XX%X=kXX%%uYX%%&.X+X=kXX%%uYO;@%",
"paX#X$4w.O+.#h%XXXS5.;4qXXO.%,q-",
"X@+.O.qB$%&XX@%.%%5%X.qB$&>XO.Nb",
"e-XaX%5.%O%;-w.5a%XX.%r.#OO;.t#X",
"Vq,pLn>2.X+@qNXg;X+.Ln>>XXO8L>2+",
".X2.u<r6+++.X.=+%%..u;r6+++%u#a>",
"&X.O 6a.<O;5&+..%.Yu tpX;+;,og;O",
"%5X%X>o.#if1.5%%X.n2.2o.+pf;%%..",
"%>X+O.9IiGaoX2OoO%5&O 9IiGpOX.Iv",
"%A5.X5<vfpo.Xad.O2..X5<lfa+.;59z",
".;t.X%XX2.y;..p>XokUX%XX>.y%O%.%",
"K503O#X+X.J55JOcX5<l%$OOXXJy#OXX",
"a$IlXOX%OO..<rkTo>5.XXO+XO.XOX++"
};
