/* XPM */
static char *result[] = {
/* columns rows colors chars-per-pixel */
"32 32 103 2 ",
"   c #181425",
".  c #181424",
"X  c #181323",
"o  c #181629",
"O  c #181526",
"+  c #181122",
"@  c #171022",
"#  c #18192A",
"$  c #181828",
"%  c #181222",
"&  c #171C31",
"*  c #181426",
"=  c #19101F",
"-  c #181324",
";  c #181628",
":  c #171B30",
">  c #171C30",
",  c #181527",
"<  c #180C1B",
"1  c #153A56",
"2  c #12779F",
"3  c #180D1E",
"4  c #171A2D",
"5  c #17192D",
"6  c #132E48",
"7  c #190E1D",
"8  c #181020",
"9  c #162439",
"0  c #143F5B",
"q  c #181021",
"w  c #171A2E",
"e  c #152640",
"r  c #181121",
"t  c #161F33",
"y  c #171B2E",
"u  c #17182B",
"i  c #190C1B",
"p  c #181729",
"a  c #191121",
"s  c #132E49",
"d  c #191020",
"f  c #18172A",
"g  c #132F49",
"h  c #19101E",
"j  c #152641",
"k  c #16233B",
"l  c #181223",
"z  c #133558",
"x  c #11436C",
"c  c #181221",
"v  c #171B2F",
"b  c #17182A",
"n  c #161F36",
"m  c #17172A",
"M  c #13304B",
"N  c #181626",
"B  c #151F39",
"V  c #15203A",
"C  c #0F89B6",
"Z  c #11547A",
"A  c #180E1F",
"S  c #152742",
"D  c #115479",
"F  c #152E48",
"G  c #132F4A",
"H  c #171E34",
"J  c #162239",
"K  c #181627",
"L  c #181123",
"P  c #104671",
"I  c #142E4C",
"U  c #14304F",
"Y  c #18192C",
"T  c #190F1F",
"R  c #18182B",
"E  c #17192C",
"W  c #191120",
"Q  c #171E33",
"!  c #181427",
"~  c #15213D",
"^  c #104873",
"/  c #152542",
"(  c #14415E",
")  c #117DA8",
"_  c #170E1F",
"`  c #142F4D",
"'  c #142B48",
"]  c #152F4A",
"[  c #115378",
"{  c #180F1F",
"}  c #18182A",
"|  c #153B57",
" . c #1278A1",
".. c #181525",
"X. c #162339",
"o. c #16223A",
"O. c #13385B",
"+. c #162037",
"@. c #142D4B",
"#. c #16233C",
"$. c #142E4D",
"%. c #171F35",
"&. c white",
/* pixels */
"  . X           . o O       + @ X # $ % O X & o . X . * X = O   ",
"- ; : X         X > o - , < 1 2 3   , 4 -   ; O - 5 ; % > 6 7 , ",
"  O ; .           X - , O 8 9 0 q . w e r O - * r e 5 r ; t y - ",
"    . O       X   * . u , O r i O   - r O O     * r   p a 4 s = ",
"    O ;   - ; & r     - , ;   , -     O X d O       p & - - d O ",
"          O f , 5 ; - O r X   O o .   % > g d O     - X     O   ",
"        - o & h j 5 - r e w % f : X * - ; > - * - p k > X       ",
"            X O r - O - w   . p X .     - l X   . p z x :       ",
"      * -       O * X   c v b a   p O     - 5 ;   - n z k .   O ",
"      % m ,       - 4 p = M N B - w m - O r e 5 X - X p p   - r ",
"    X : m       O r e 5   7 V C Z A = O   * r -   o O - . X 5 S ",
"    . o *         * r X   O * D F 5 G d O       X & o .   . , 4 ",
"      -       . X     H J K r L = ; > l     ; O   - O       ; - ",
"            - o & X   J P I O . p   + ; O % & ; . - d O   % & p ",
"  O           O o     K I U Y l & o .   , u %   % > g T f & %   ",
"O ;     * ,     -   - r O R -   X .       ,     - ; > X O O     ",
"  . -   , u -     . ; > - l : ;                     X - K E -   ",
"  O o     -       W > s d O o O             -       . K 5 j r O ",
"- ; & X       . K w % d O   -             - Q J O ! ~ Y X c *   ",
"    X         X 4 e c ;         O ; . O * . J ^ / ( ) _ K ,     ",
"    ; O         - r O X .         * * d -   , ` ' ] [ { a -     ",
"    O O % @ -     O X & o -     - O d s > % .   } - L = G > * O ",
"    O < |  .3 O     - o O     . o O X > ; -   O K . ..X > , : p ",
"    * r X.0 8 O   O p X     * - > ; . % -   . o & X *   % . - . ",
"      O r i O       p } % O R * X .   O   . X   X               ",
"          K   - -   X v S o.O       O ; - o & X O   X .         ",
"      O o - - E p   . p O.S %   o O       O ;     X & p -       ",
"    - o & % +.@.#.-   E p v R X & o -       .   o   ; . -       ",
"        % 4 $.$.%.- *   - X ; O X .           X & p % : o -     ",
"        - R S H -           .                   X     o O       ",
"          - X -                           O           -         ",
"                                          ; O                   "
};
