/* XPM */
static char *result[] = {
/* columns rows colors chars-per-pixel */
"32 32 89 1 ",
"  c #361E27",
". c #3C1F25",
"X c #351F29",
"o c #391F29",
"O c #3C2027",
"+ c #36242C",
"@ c #3C252E",
"# c #3C282F",
"$ c #3D2731",
"% c #3E2832",
"& c #3F253C",
"* c #3C2C39",
"= c #333036",
"- c #3D333D",
"; c #411F27",
": c #431F28",
"> c #4E1D3B",
", c #42232D",
"< c #422633",
"1 c #492235",
"2 c #412935",
"3 c #4A2937",
"4 c #462639",
"5 c #4A263A",
"6 c #462A3B",
"7 c #4A2A3C",
"8 c #52263C",
"9 c #50283B",
"0 c #44343F",
"q c #4A333E",
"w c #2D2E42",
"e c #322C42",
"r c #3A2D49",
"t c #363445",
"y c #3C3443",
"u c #293D53",
"i c #452A40",
"p c #4D2D42",
"a c #582745",
"s c #522C42",
"d c #582944",
"f c #5C2748",
"g c #5A2D4C",
"h c #453344",
"j c #4D3442",
"k c #4D394A",
"l c #573146",
"z c #583045",
"x c #58314A",
"c c #5C3050",
"v c #66354A",
"b c #69374C",
"n c #653557",
"m c #6D3551",
"M c #663558",
"N c #7B3659",
"B c #753F5B",
"V c #773E64",
"C c #793D64",
"Z c #2F455C",
"A c #374D56",
"S c #394D56",
"D c #3B4E5A",
"F c #3C505C",
"G c #2E4160",
"H c #2C4E66",
"J c #395066",
"K c #32516D",
"L c #5E4A53",
"P c #5F4E5C",
"I c #5D525E",
"U c #624D56",
"Y c #434D60",
"T c #5F4F60",
"R c #615261",
"E c #9D4B6C",
"W c #A14C6E",
"Q c #AE4E7D",
"! c #1B5E89",
"~ c #1F608E",
"^ c #217399",
"/ c #736598",
"( c #AF4F80",
") c #B15384",
"_ c #1C8AB2",
"` c #4189B1",
"' c #0999D4",
"] c #878996",
"[ c #8B8E9E",
/* pixels */
"+[I+2+$$##23$2%%@#27#22%+[P@2,D-",
"<L7$$bs+66##$$2#76##+%2#2U0<$$y%",
"yuap+Wm+494<$@,,296#l4%3*wa5@<82",
"Z^52$+4<-S@%%@kP*S@$Ev@4$*7y%@72",
"<,@$$7+@2h4$<oP]@h4@$$2@%2OD-4@@",
"24%$$$Uj+5M$@4@@@4n##4<$%6%,$@Lj",
"%-4#$$j22%$$@%h22%%<@%02$@2%%@j2",
"-SO44@$$%$$$3hSO2$+#4hSO%$@44$$$",
"@O%c7%%$<@2#7g@%+xV$7g@%$<$g7%$%",
"22$%64$<4-2%@$<$$C)6@$$$2%$$64$$",
"$<$$<@<@-D,%$2$$4&i%$<2$<<$%2@$$",
"#%442$$2,1s@$2$#@O$2%7+$$@$<2$<2",
"2$c4@22$%4$$%%2<-Y<@%%v3*-@%%22%",
"%2$@@<$2,J`44ie,%h44@@Wv=Y1%<@@#",
"$%3D0@2%<t/Q>!'r,2%2$$$$@1s@2#22",
"$@<-g$<2<OdVOG~7%%@%$$<%$%+@d2%4",
"$<$@<$%2%%@+74.@$@22d2$22@aC+<<$",
"%2$2$@$#@17@9,76@%622$2%<t/Q%$%@",
"$466@@Wv=Y1@tHf7$$$$%$#2:J`&$$Eb",
"@44@%%v7*-@;K_o*2%c4#22,$5$<%%v9",
"@@#227+@2,%%o:xp@%442222<1s@27+$",
"2262%<<$<@@%g4Bs@%@$2@@@-D,$$$$$",
"$C)6@%%$22-$p2%+2$<$64%<4-2$$%$$",
"+sC$4c$$@-Dd2$2$$$$c7@%$<@2$4c$$",
"jLX#44#<$$O74$$$%2@42@2@%%$#44#$",
"60@2@%22$$2%$$j2@@2%$22$2%#<@%22",
"+4M%,4@+%6$$$$Uq$62,$222+3M$<4<+",
"%h5@%oT]@2@$@7+$<<OS-42#2h5#$XU[",
"-S@$Ev0I@%7<$#5:Z^5-*@#,-S@$Ev0R",
"486@l3@1%%g7+WN+yZf5#%@@494@l3+<",
"66@$$-2#22@&$vk#<,$%%,h%66@$%-4@",
"##22-D@%@$%2%XD0@%$2%@F-@#22-F,%"
};
