/* XPM */
static char *result[] = {
/* columns rows colors chars-per-pixel */
"32 32 89 1 ",
"  c #0E051D",
". c #14071A",
"X c #150C1D",
"o c #190E1D",
"O c #1A101D",
"+ c #22111F",
"@ c #070A24",
"# c #0D0D24",
"$ c #130E22",
"% c #190F20",
"& c #0E1024",
"* c #161324",
"= c #191425",
"- c #1E1927",
"; c #14152A",
": c #1D162A",
"> c #161829",
", c #1B192A",
"< c #161D31",
"1 c #1A1D31",
"2 c #171F39",
"3 c #230D21",
"4 c #221425",
"5 c #241B26",
"6 c #22162D",
"7 c #22192D",
"8 c #3B1E26",
"9 c #3E1D28",
"0 c #231B31",
"q c #2B1C35",
"w c #241538",
"e c #2D1C39",
"r c #301C37",
"t c #321E3A",
"y c #3E1F3B",
"u c #172335",
"i c #192233",
"p c #14223B",
"a c #1C2738",
"s c #1B2A3D",
"d c #2B2326",
"f c #262229",
"g c #2B252A",
"h c #322225",
"j c #3B2028",
"k c #2F2237",
"l c #212538",
"z c #34213C",
"x c #3D213C",
"c c #46202D",
"v c #463D2F",
"b c #5E362A",
"n c #5E3929",
"m c #4E2A3C",
"M c #463F32",
"N c #483F31",
"B c #643B2C",
"V c #0E2A47",
"C c #142C47",
"Z c #102B49",
"A c #12304B",
"S c #1C3E4D",
"D c #0F3F5C",
"F c #163754",
"G c #183954",
"H c #103F5E",
"J c #2A2C42",
"K c #362441",
"L c #3A2341",
"P c #452544",
"I c #1C404F",
"U c #1C4152",
"Y c #13425F",
"T c #204153",
"R c #154461",
"E c #194B67",
"W c #194C68",
"Q c #2F4E75",
"! c #A45D30",
"~ c #BA712F",
"^ c #AC6137",
"/ c #BA7130",
"( c #FFA43D",
") c #166E96",
"_ c #0F82AC",
"` c #1183AD",
"' c #2284A6",
"] c #2486A8",
"[ c #43DEFD",
/* pixels */
"XSi**=:*zt*:*Ysd==*o=0:**=:**:*=",
"d2;***r77=*=*_Yo0tiSoz6*==*==,==",
",mB*=>Jr***:=o=*=t01**=6*=,=**==",
"@n~$==>=,==*=====*=**,=te*-*=6:=",
"**$*=*==**==*:*:=->===,77o**0z*=",
":====z0>84*=-t:*$*Je==:*XS1=:g-*",
"==--7riI4=*-gi,$/nw7*=*-di-=**e7",
"=*=g**=$**:*XSi$nd**=-*,5t:*=>Jz",
"=*1*=*:*o*$*,1i*#:-g=dX=;==*==>*",
"=sUX==*uGXM51S4::7=5oH`6:==4=*=*",
"OC*,i*oF)$f-$4x:**=*OpQr:$===z0i",
"pX=*,*==%***=1Zo**77==3i=_YO0riU",
",5***==*=0>=X'[VO0K6**>ioYsd*==o",
"48****=*Xs,*XE';*q6u,=iSoo**==**",
"**1g5**,iO***XX*-f*,=*=$*=>i**g-",
":*ek*:=1SX:*5K,*fM$*==&9=*:,==-=",
"=**=****%,**g7:=*$:*=:c(!#====**",
"*=:==i,*qxg***1***==#:P^b$o=**=j",
"*,===,:**l,==iSo>:=$M5;=&%Gi=>a4",
"==:=*==*oS,===%*i>**g=%*=*i-=*-=",
"*ez*=*#::*=======7-g Si*===*=>==",
":-77&b!:*=====7::,=fgi,*=*r7>2=>",
"**:=#!(9*=***6y:****5t:**,Jt=O<A",
"==:=*49@*::g=1Zo:*:7*:*:==>=====",
"i,****-N$=ekX`[VX0L,*=*4=**==*g-",
">,t7,=-f*==:oE];*e7u7X===z0i=***",
"**77u>e:*=**=oX=-f*,=_YO0tiSX:**",
"==***tz*;4:*5z,$fvX*OYsd***o=$:-",
"**=*:6o**=-*g7:=$;Vo*o=#*=o=iS=s",
":-**oD`o*eK*=*i*X][VO,$M5pYo,s*o",
"**=:=lR:=77,=,S%=E';==*foY`$%C<=",
"=*=*55o7*=6==*X=i=.====$=Oo==o=="
};
