/* XPM */
static char *result[] = {
/* columns rows colors chars-per-pixel */
"32 32 47 1 ",
"  c #070F43",
". c #020F49",
"X c #061146",
"o c #081347",
"O c #04164C",
"+ c #09164A",
"@ c #05194E",
"# c #0A194D",
"$ c #151C4E",
"% c #191F4F",
"& c #041B52",
"* c #0B1D51",
"= c #031E58",
"- c #201E47",
"; c #0D2255",
": c #062459",
"> c #0C2658",
", c #0C2A5B",
"< c #102255",
"1 c #192252",
"2 c #102B5E",
"3 c #22214A",
"4 c #2B2653",
"5 c #222D53",
"6 c #052C63",
"7 c #0F2E62",
"8 c #122E61",
"9 c #0F3060",
"0 c #123162",
"q c #173569",
"w c #19376B",
"e c #143F6F",
"r c #19396C",
"t c #452D42",
"y c #463046",
"u c #493044",
"i c #47334A",
"p c #5F3A5D",
"a c #603B5E",
"s c #13507E",
"d c #18527E",
"f c #964E37",
"g c #984F37",
"h c #995139",
"j c #1E5A87",
"k c #1E5B88",
"l c #205F8C",
/* pixels */
"#+###*>+#+######++OO#*,+#++#++##",
"*>#######,;+###O;7t3@++#+0;+;8;;",
"#*+++;w+@d,;*+#4%&ftO;w++s6+#;++",
"#+8;+;>+#+#*##Op4O@@+;>+@-t#1+##",
"#+**o>#+#######@@o;#+;##OthO##*#",
"#*>+>########*;+;8;@>###*@O##+,*",
"##,#r<o##+###+,#9k++w;+#######+#",
"###++*0+#;#####+#+++++*#######++",
"#+;ro*;#or;#++;ro#;ro#>*#####+;r",
"#+**l0o##+#ok0+<#***######+###*;",
"#*#o0;###*>o0>#o######**+*>#####",
"@>1$o+####*#o:1###o*#o;8o#####o#",
"#o###*########$#o<8##*#o#;8##;ro",
">*O#+>#######O&#:**##>*#o0ko*O:*",
"&4aO#+######@t5@o*###+#@##o#:t5O",
"@$4+########Oft=ro####+#*o#*Ogi6",
"#>O##:*+#####o@*<;*#***#or*+8@@*",
"@*;*o*###*###>*++***o*8##<*#*7*#",
"# 8*r*##*e###*#@*o8*r*o##**#o*##",
"oj8o<*+##o###@@>#*o+;####**+>#O#",
"#0;#++>*or;#+4p&o#>* ;*##+##&4aO",
"@.+###*##**#@$4o>*##9>#######$4+",
"uf=*+#####*+**O**#>#k9#;##*;*&O*",
"3y;######*>o0;;>o#**++;ro+<q2**>",
"O&8+###*#o#* *8o#+####*o#o#+++#+",
"r*o#+#,+0koor;o#**####>#0k+##;##",
"<*#+8>;+;8;*;*##*0+#####;0;**0+#",
"####*#+@@o**o>###+####**#o*##+##",
"######@a4OO@#*;###+**@8*+#@+###*",
"#####++41&gtO;ro+d,;*oo#*&gtO##>",
"##*#or;O*7t-@####0;#or;o*8t%O##+",
"#*>##;*+#OOO#*,+#o+##<*##+O&####"
};
